<svg width="20" height="22" viewBox="0 0 20 22" fill="none" xmlns="http://www.w3.org/2000/svg">
<path fill-rule="evenodd" clip-rule="evenodd" d="M10 0H9.92524H9.92522C7.86739 -2.47957e-05 6.22039 -4.46439e-05 4.92761 0.175648C3.58933 0.357524 2.48245 0.744196 1.60711 1.62902C0.733256 2.51234 0.352725 3.62682 0.173483 4.97445C-4.18141e-05 6.2791 -2.32459e-05 7.94211 0 10.024V10.0241V10.0975V15.0909V15.1533V15.1533C-1.81199e-05 16.6487 -3.27155e-05 17.8534 0.0974256 18.7654C0.193372 19.6632 0.403614 20.546 1.05642 21.1477C1.56161 21.6132 2.20076 21.907 2.88323 21.9851C3.76867 22.0864 4.57071 21.6606 5.30319 21.1417C6.04723 20.6147 6.94475 19.8208 8.05726 18.8368L8.05737 18.8367L8.10468 18.7949C8.62826 18.3318 8.97035 18.0306 9.25256 17.8242C9.52164 17.6274 9.66119 17.5748 9.75775 17.5554C9.91771 17.5232 10.0823 17.5232 10.2423 17.5554C10.3388 17.5748 10.4784 17.6274 10.7474 17.8242C11.0297 18.0306 11.3717 18.3318 11.8953 18.7949L11.9427 18.8368C13.0552 19.8208 13.9528 20.6147 14.6968 21.1417C15.4293 21.6606 16.2313 22.0864 17.1168 21.9851C17.7992 21.907 18.4384 21.6132 18.9436 21.1477C19.5964 20.546 19.8066 19.6632 19.9026 18.7654C20 17.8534 20 16.6487 20 15.1533V15.0909V10.0975V10.0241C20 7.94212 20 6.2791 19.8265 4.97445C19.6473 3.62682 19.2667 2.51234 18.3929 1.62902C17.5176 0.744196 16.4107 0.357524 15.0724 0.175648C13.7796 -4.46409e-05 12.1326 -2.47957e-05 10.0748 0H10.0748H10ZM3.02893 3.03559C3.47161 2.58811 4.0844 2.30863 5.19694 2.15743C6.33937 2.00217 7.85011 2 10 2C12.1499 2 13.6606 2.00217 14.8031 2.15743C15.9156 2.30863 16.5284 2.58811 16.9711 3.03559C17.4152 3.48456 17.6937 4.10839 17.844 5.23814C17.9979 6.39556 18 7.92524 18 10.0975V15.0909C18 16.6632 17.9986 17.7601 17.9139 18.5529C17.8263 19.3724 17.6695 19.602 17.5882 19.677C17.3932 19.8567 17.1485 19.9684 16.8894 19.998C16.7877 20.0097 16.5199 19.9822 15.8529 19.5097C15.208 19.0529 14.3913 18.3325 13.2204 17.2968L13.1871 17.2674C12.706 16.8418 12.2943 16.4776 11.928 16.2098C11.5401 15.9262 11.1302 15.6941 10.6372 15.5948C10.2166 15.51 9.78344 15.51 9.36281 15.5948C8.86985 15.6941 8.45987 15.9262 8.07203 16.2098C7.70572 16.4776 7.29401 16.8418 6.81283 17.2674L6.77964 17.2968C5.60868 18.3325 4.79205 19.0529 4.14715 19.5097C3.48013 19.9822 3.21227 20.0097 3.1106 19.998C2.85153 19.9684 2.60683 19.8567 2.4118 19.677C2.33049 19.602 2.17368 19.3724 2.0861 18.5529C2.00139 17.7601 2 16.6632 2 15.0909V10.0975C2 7.92524 2.00208 6.39556 2.15602 5.23814C2.30629 4.10839 2.58477 3.48456 3.02893 3.03559ZM7 4C6.44772 4 6 4.44772 6 5C6 5.55229 6.44772 6 7 6H13C13.5523 6 14 5.55229 14 5C14 4.44772 13.5523 4 13 4H7Z" fill="#37D8A7"/>
</svg>
